<svg xmlns="http://www.w3.org/2000/svg" viewBox="0 0 24 30" x="0px" y="0px"><g><path d="M7.56,12.66,6.78,15A1.74,1.74,0,0,0,7.2,16.8,1.75,1.75,0,0,0,9,17.22l2.35-.78a.79.79,0,0,0,.29-.18L22.24,5.65a1.75,1.75,0,0,0,0-2.47L20.82,1.76a1.75,1.75,0,0,0-2.47,0L7.74,12.37A.79.79,0,0,0,7.56,12.66ZM19.41,2.82a.26.26,0,0,1,.35,0l1.42,1.42a.26.26,0,0,1,0,.35L19.59,6.18,17.82,4.41ZM8.2,15.48l.73-2.18,7.83-7.83,1.77,1.77L10.7,15.07l-2.18.73a.25.25,0,0,1-.32-.32Zm14.55-5V19A3.75,3.75,0,0,1,19,22.75H5A3.75,3.75,0,0,1,1.25,19V5A3.75,3.75,0,0,1,5,1.25h8.51a.75.75,0,0,1,0,1.5H5A2.25,2.25,0,0,0,2.75,5V19A2.25,2.25,0,0,0,5,21.25H19A2.25,2.25,0,0,0,21.25,19V10.49a.75.75,0,0,1,1.5,0Z" stroke="black" stroke-width="0.8"/></g><text x="0" y="39" fill="#000000" font-size="5px" font-weight="bold" font-family="'Helvetica Neue', Helvetica, Arial-Unicode, Arial, Sans-serif">Created by Arkinasi</text><text x="0" y="44" fill="#000000" font-size="5px" font-weight="bold" font-family="'Helvetica Neue', Helvetica, Arial-Unicode, Arial, Sans-serif">from the Noun Project</text></svg>